<?xml version="1.0" encoding="UTF-8"?><svg id="Layer_2" xmlns="http://www.w3.org/2000/svg" viewBox="0 0 658.15 559.45"><defs><style>.cls-1{fill:#f47920;}.cls-2{fill:#f7941d;}.cls-3{fill:#fff;}.cls-4{fill:#231f20;}</style></defs><g id="Layer_2-2"><path class="cls-4" d="m320.7,38.99c-69.51,0-134.86,27.07-184.01,76.22s-76.22,114.5-76.22,184.01,27.07,134.86,76.22,184.01,114.5,76.22,184.01,76.22,134.86-27.07,184.01-76.22,76.22-114.5,76.22-184.01-27.07-134.86-76.22-184.01-114.5-76.22-184.01-76.22Zm0,451.07c-105.23,0-190.84-85.61-190.84-190.84s85.61-190.84,190.84-190.84,190.84,85.61,190.84,190.84-85.61,190.84-190.84,190.84Z"/><g id="Paw_WHITE"><g><path class="cls-4" d="m466.03,304.55c-2.73-20.05-10.28-39.79-23.77-62.11-24.41-40.39-61.35-67.94-109.79-81.89-10.02-2.88-20.07-3.9-29.83-3.12-8.98-.2-17.78,1.2-26.11,4.16,14.33-8.45,24.28-21.22,27-35.39,1.66-8.63,2.55-16.98,2.71-25.11.49,2.83,1.11,5.66,1.87,8.49l.68,2.57c2.03,7.76,4.24,16.16,8.64,23.41,3.23,7.73,7.98,14.99,16.07,20.37,14.85,9.88,29.22,14.85,42.88,14.85,3.83,0,7.6-.39,11.31-1.17,3.17-.67,6.26-1.61,9.28-2.84,13.06-5.29,24.66-15.78,34.57-31.3,14.12-22.11,18.68-47.68,13.54-75.98-4.01-22.12-16.84-40.82-34.31-50.04-5.58-2.94-12.97-5.6-21.98-6.16-2.94-.18-6.06-.14-9.35.18-9.07-.38-18.65,1.61-28.42,5.98l-.25.11c-16.75,6.95-29.45,18.99-36.74,34.84-5.43,11.81-8.45,23.82-9.06,35.95-1.26-8.47-3.4-16.73-6.46-24.84l-.28-.74h0s0,0,0,0l-.34-.54-.08-.13c-1.73-2.77-3.45-5.67-5.12-8.48-3.88-6.53-7.9-13.29-12.63-19.61C266.66,8.13,242.1-1.94,219.72.31c-5.69-.19-11.31.4-16.59,1.9-24.46,6.94-38.89,24.35-41.71,50.35-2.57,23.7,1.27,44.83,11.66,63.8,5.18,11.43,12.52,22.14,22.05,32.18,3.5,3.69,7.29,7.29,11.38,10.8,9.36,8.05,21.48,12.2,34.54,12.2,1.82,0,3.65-.08,5.5-.24,5.55-.49,11.21-1.7,16.86-3.67.18-.06.36-.13.54-.2-1.55.91-3.09,1.88-4.59,2.91-16.01,11.01-31.55,24.2-46.19,39.2-2.62,2.69-5.13,5.39-7.58,8.1.06-.23.1-.46.16-.69.07-.3.14-.6.21-.9.16-.72.3-1.43.44-2.15.03-.15.06-.31.09-.46.15-.86.28-1.72.4-2.58.04-.26.07-.52.1-.78.08-.66.15-1.31.21-1.97.02-.25.05-.51.07-.76.07-.88.13-1.76.16-2.64,0-.07,0-.14,0-.22.03-.82.04-1.64.03-2.45,0-.24,0-.49-.01-.73-.01-.72-.04-1.43-.08-2.15,0-.19-.02-.37-.03-.56-.06-.9-.13-1.79-.22-2.69-.01-.13-.03-.26-.05-.39-.09-.77-.19-1.54-.31-2.31-.03-.21-.07-.43-.1-.64-.13-.82-.28-1.64-.45-2.45-.01-.07-.03-.14-.04-.2-.19-.91-.4-1.81-.63-2.71-.04-.15-.08-.3-.12-.44-.2-.76-.42-1.53-.65-2.28-.05-.17-.1-.33-.15-.5-.28-.89-.58-1.78-.9-2.67l-.58-1.52c-12.57-31.32-27.86-47.9-51.12-55.47-9.81-3.19-19.46-4.25-28.44-3.41-21.04-.69-39.09,9.48-46.99,27.84-3.71,8.63-5.63,17.95-5.79,27.46-.2,12.22,2.51,24.76,8.11,36.54.86,1.82,1.8,3.58,2.78,5.31.24.54.49,1.08.74,1.62,10.55,22.2,29.21,38.54,51.21,44.81.32.09.63.16.95.25.58.16,1.16.31,1.74.45.44.11.87.21,1.3.31.83.18,1.65.35,2.47.5.39.07.77.13,1.16.19.63.1,1.26.19,1.89.27.38.05.76.1,1.14.14.79.09,1.58.15,2.36.2.36.02.73.04,1.09.06.82.04,1.64.06,2.45.06.01,0,.02,0,.03,0,.55,0,1.1-.03,1.64-.04.46-.01.92-.02,1.38-.05.53-.03,1.06-.08,1.59-.13.46-.04.92-.08,1.38-.14.52-.06,1.04-.14,1.56-.22.46-.07.92-.15,1.37-.23.51-.09,1.02-.19,1.53-.3.45-.1.9-.21,1.35-.32.5-.12,1-.24,1.5-.38.45-.13.89-.27,1.33-.41.49-.15.98-.3,1.47-.47.45-.16.89-.34,1.33-.5.9-.34,1.79-.71,2.67-1.11.41-.19.83-.37,1.24-.57.48-.23.96-.49,1.43-.74.39-.2.77-.4,1.16-.62-5.2,9.2-9.63,18.62-13.28,28.3-1.45,3.85-2.8,7.73-4.01,11.66-4.13,13.35-3.38,31.39,2.01,48.27,2.01,6.31,4.59,12.18,7.59,17.47,6.23,13.65,15.09,24.59,25.21,30.83,12.11,7.46,25.35,12.53,42.91,16.46,21.01,4.69,41.89,7.03,62.58,7.03,33.93,0,67.32-6.31,99.77-18.89l.05-.02c18.81-6.16,34.97-16.71,48.02-31.37,10.48-11.76,17.19-24.55,20.12-38.22,1.9-8.87,2.22-18.11.92-27.69Z"/><path class="cls-4" d="m551.18,132.93c-.16-.3-.34-.59-.51-.89-.32-.56-.63-1.13-.97-1.68-6.08-10-15-18.33-26.23-23.59-.22-.1-.44-.22-.66-.32-7.76-3.53-17.19-4.66-26.96-3.77-5.02-.14-10.29.36-15.56,1.46-15.07,3.13-30.13,11-39.33,22-17.84,21.32-23.25,46.68-16.07,75.38,1.77,7.07,4.16,13.07,7.19,18.03,2.57,6,5.78,11.04,9.62,15.09,7.9,8.34,18.47,12.54,31.63,12.54,2.01,0,4.08-.1,6.21-.29,0,0,0,0,0,0,0,0,0,0,0,0,.09,0,.18-.02.27-.03,5.1-.5,9.86-1.72,13.71-2.71,1.38-.35,2.57-.66,3.54-.87l.79-.17.28-.12.46-.2c25.95-11.46,43.9-29.12,54.88-54.01.1-.23.19-.46.28-.69,7.9-18.47,6.33-38.76-2.59-55.14Z"/><g><path class="cls-2" d="m386.46,389.43c17.5-5.73,32.29-15.34,44.53-29.09,15.21-17.08,22.18-36.64,19.08-59.49-2.92-21.45-11.65-40.78-22.69-59.05-24.37-40.32-60.61-65.51-105.16-78.34-21.03-6.05-42.93-3.17-61.16,9.36-16.41,11.28-31.82,24.55-45.74,38.82-25.05,25.68-44.83,55.09-55.59,89.9-8.21,26.55,4.17,69.35,28.1,84.1,12.75,7.86,26.13,12.27,40.46,15.46,53.99,12.05,106.7,8.37,158.18-11.69v.02ZM282.97,53.54c-5.75-9.2-10.88-18.86-17.36-27.52C252.1,7.98,224.98-.87,203.95,5.09c-24.14,6.85-36.92,23.58-39.55,47.79-4.21,38.78,9.38,69.91,39.29,95.62,27.52,23.66,77.85,3.1,83.95-28.6,4.37-22.7,3.57-44.46-4.67-66.36h0Zm69.25-41.35c-15.24,6.24-27.97,17.11-35.49,33.46-9.36,20.34-11.44,41.68-5.73,63.14,3.48,13.08,6.53,27.47,18.89,35.69,34.53,22.98,64.8,16.42,86.85-18.1,13.63-21.34,17.01-44.91,12.41-70.25-5.83-32.1-34.7-62.85-76.93-43.95h0Zm-164.54,165.83c-11.61-28.92-24.92-43.93-46.17-50.84-25.39-8.25-52.06-.71-62.16,22.79-17.03,39.63,6.85,90.21,48.45,102.08,18.8,5.36,34.94.55,47.7-14.18,18.02-20.8,18.41-44.06,12.18-59.84h0Zm299.66,52.65c24.81-10.95,41.01-27.74,50.79-49.92,12.29-27.87-.18-59.78-26.66-71.8-19.06-8.66-52.55.41-68.2,19.11-17.89,21.38-22.04,46.42-15.46,72.73,6.33,25.31,20.35,35.42,42.97,33.34,6.34-.58,12.56-2.59,16.56-3.46Z"/><path class="cls-4" d="m289.11,410.94c-20.32,0-40.83-2.3-61.48-6.91-16.99-3.78-29.75-8.66-41.38-15.83-11.76-7.25-21.74-21.56-27.39-39.27-5.38-16.88-6.13-34.92-2.01-48.27,10.16-32.88,28.58-62.69,56.31-91.11,14.63-15,30.17-28.19,46.19-39.2,18.58-12.77,41.2-16.24,63.69-9.77,47.19,13.59,83.16,40.4,106.9,79.67,13.12,21.72,20.46,40.84,23.1,60.2,3.1,22.83-3.57,43.65-19.81,61.89-12.45,13.99-27.88,24.07-45.84,29.95l-.17.06c-31.91,12.39-64.74,18.6-98.11,18.6Zm11.88-247.53c-13.66,0-26.79,4.02-38.23,11.89-15.69,10.79-30.93,23.72-45.29,38.44-27.05,27.73-44.99,56.74-54.87,88.69-7.5,24.25,3.4,66.23,26.81,80.66,11.04,6.8,23.23,11.46,39.54,15.08,53.49,11.94,106.12,8.05,156.44-11.56l7.47-2.91-.12.23c13.98-5.71,25.82-14.13,36.02-25.59,15.24-17.11,21.24-35.79,18.35-57.09-2.52-18.51-9.6-36.91-22.29-57.9-22.93-37.94-57.73-63.85-103.42-77.01-6.83-1.97-13.68-2.94-20.4-2.94Zm-158.99,93.73c-4.83,0-9.85-.73-15.02-2.21-20.61-5.88-38.13-21.25-48.06-42.15-9.95-20.95-10.8-44.27-2.32-64,10.18-23.69,37.26-33.75,65.84-24.46,21.99,7.15,35.91,22.38,48.03,52.58l.22.57c3.2,8.44,10.49,35.35-12.91,62.36-9.93,11.46-22.11,17.31-35.76,17.31Zm-20.33-130.22c-17.84,0-32.92,8.76-39.57,24.24-7.79,18.14-6.98,39.66,2.23,59.05,9.19,19.35,25.33,33.55,44.29,38.96,17.62,5.02,32.63.56,44.61-13.26,21.72-25.07,14.41-49.79,11.66-56.77l-.19-.47c-11.33-28.02-24.14-42.13-44.12-48.63-6.47-2.1-12.85-3.11-18.91-3.11Zm343.61,110.48c-21.13,0-34.37-11.78-40.39-35.87-7.18-28.7-1.77-54.06,16.07-75.38,16.37-19.56,51.23-29.23,71.74-19.92,28.28,12.84,40.92,46.82,28.16,75.74-10.45,23.7-27.56,40.53-52.32,51.45l-.28.12-.3.06c-1.07.23-2.36.56-3.73.92-3.74.96-8.39,2.16-13.2,2.6-1.98.18-3.9.27-5.76.27Zm29-128.76c-17.25,0-37.83,8.35-48.72,21.35-16.54,19.77-21.54,43.34-14.85,70.08,5.87,23.49,18.14,33.07,39.79,31.08,4.33-.4,8.72-1.53,12.25-2.43,1.3-.34,2.54-.66,3.65-.9,23.18-10.3,39.21-26.09,48.99-48.27,11.43-25.93.15-56.37-25.16-67.86-4.58-2.08-10.07-3.05-15.94-3.05Zm-261.27,53.14c-11.87,0-22.85-3.74-31.28-10.99-31.38-26.97-44.56-59.1-40.32-98.22,2.82-26,17.25-43.41,41.71-50.35,22.38-6.34,50.88,3.33,64.88,22.02,4.54,6.06,8.45,12.64,12.23,19.01,1.71,2.88,3.48,5.85,5.27,8.72l.16.25.1.28c7.97,21.17,9.54,43.41,4.81,67.98-3.11,16.16-17.58,30.95-36.85,37.67-6.99,2.44-14,3.63-20.71,3.63ZM217.85,6.23c-4.49,0-8.91.56-13.09,1.75-22.23,6.31-34.81,21.53-37.39,45.23-4.02,37.01,8.5,67.44,38.26,93.02,11.56,9.94,28.8,12.28,46.11,6.24,17.29-6.03,30.22-19.03,32.94-33.13,4.49-23.35,3.05-44.43-4.43-64.46-1.77-2.84-3.51-5.76-5.18-8.58-3.7-6.23-7.53-12.67-11.88-18.48-10-13.35-28.2-21.59-45.35-21.59Zm150.51,154.76c-12.68,0-26.13-4.69-40.14-14.01-12.49-8.31-16.18-22.39-19.44-34.81l-.69-2.6c-5.85-22-3.87-43.93,5.9-65.17,7.29-15.85,19.99-27.89,36.74-34.84l.25-.11c17.71-7.93,34.78-8.05,49.37-.36,15.89,8.38,28.05,26.2,31.74,46.51,4.91,27.03.59,51.39-12.83,72.4-11.45,17.92-25.12,28.66-40.65,31.93-3.35.71-6.77,1.06-10.25,1.06Zm-13.15-146.83v.04l-1.86.77c-15.71,6.43-27.11,17.18-33.9,31.94-9.17,19.93-11.04,40.5-5.56,61.12l.69,2.62c3.13,11.95,6.37,24.3,16.96,31.34,16.46,10.95,31.88,15.01,45.83,12.07,13.89-2.93,26.29-12.78,36.83-29.29,12.76-19.97,16.68-42.25,11.99-68.1-3.37-18.54-14.34-34.74-28.63-42.28-12.42-6.55-27.02-6.62-42.35-.24Z"/></g><path class="cls-1" d="m428.74,358.37c15.25-17.12,21.25-35.79,18.35-57.09-2.52-18.51-9.6-36.91-22.28-57.9-22.94-37.95-57.74-63.86-103.42-77.01-6.83-1.97-13.68-2.94-20.4-2.94-13.66,0-26.79,4.02-38.23,11.89-15.7,10.79-30.93,23.72-45.29,38.44-27.03,27.71-44.98,56.72-54.87,88.69-7.5,24.25,3.4,66.23,26.81,80.66,11.03,6.79,23.22,11.44,39.54,15.09,53.49,11.94,106.12,8.05,156.44-11.56l7.05-2.75-.11.24c14.16-5.72,26.13-14.19,36.43-25.76Z"/><path class="cls-1" d="m167.38,53.21c-4.02,37.01,8.5,67.44,38.26,93.02,11.56,9.94,28.8,12.28,46.11,6.24,17.29-6.03,30.22-19.03,32.94-33.13,4.49-23.35,3.05-44.44-4.43-64.46-1.73-2.79-3.43-5.65-5.08-8.42-3.73-6.28-7.6-12.78-11.98-18.63-10-13.35-28.2-21.59-45.35-21.59-4.49,0-8.91.56-13.09,1.75-22.23,6.31-34.81,21.53-37.39,45.23Z"/><path class="cls-1" d="m397.58,14.41c-12.42-6.55-27.03-6.63-42.36-.24v.05l-1.86.76c-15.7,6.43-27.11,17.17-33.9,31.94-9.17,19.93-11.04,40.5-5.56,61.12l.68,2.59c3.14,11.96,6.38,24.32,16.97,31.37,16.46,10.95,31.88,15.01,45.84,12.07,13.89-2.93,26.28-12.78,36.82-29.29,12.76-19.97,16.68-42.25,11.99-68.1-3.36-18.54-14.33-34.74-28.62-42.27Z"/><path class="cls-1" d="m173.23,235.89c21.72-25.07,14.41-49.79,11.66-56.77l-.19-.48c-11.33-28.02-24.14-42.12-44.12-48.62-6.47-2.1-12.85-3.11-18.9-3.11-17.84,0-32.92,8.76-39.57,24.23-7.79,18.14-6.98,39.66,2.23,59.05,9.19,19.35,25.33,33.55,44.29,38.96,17.62,5.03,32.63.57,44.61-13.26Z"/><path class="cls-1" d="m430.73,200.07c5.87,23.49,18.14,33.07,39.78,31.08,4.32-.4,8.7-1.53,12.23-2.43,1.31-.34,2.56-.66,3.67-.9,23.18-10.3,39.21-26.1,48.99-48.27,11.44-25.92.16-56.36-25.16-67.86-4.58-2.08-10.07-3.05-15.95-3.05-17.25,0-37.83,8.35-48.71,21.35-16.54,19.77-21.54,43.34-14.85,70.08Z"/></g></g><g><path class="cls-4" d="m174.56,279.69c.01-2.78-1.36-4.56-2.64-5.61-4.07-3.34-11.75-3.12-16.83-.98-3.89,1.64-6.17,4.23-6.42,7.3-.33,4.05-.59,7.81-.85,11.39-1.01,14.35-1.81,25.68-5.69,41.89-.81,3.24-1.4,6.1-1.97,8.88-1.46,7.13-2.64,12.89-6.73,19.94-3.52-4.53-6.46-8.62-9.01-12.56-5.27-9.28-8.82-18.49-13.03-31.34-2.67-8.24-2.02-19.04-6.97-26.41-.31-.17-.66-.32-1.02-.47-.68-2.03-1.56-3.96-2.74-5.73l-.21-.31-.33-.18c-4.94-2.61-15.62-3.08-23.05.41-4.29,2.01-6.98,5.1-7.77,8.9-1.55,7.25-2.72,14.87-3.85,22.25-1.61,10.53-3.14,20.48-5.65,29.03-1.74,5.9-4.32,11.55-7.54,16.56-5.9-16.03-8.69-32.62-12.9-51.23-1.05-7.78-2.97-12.7-5.78-15.34-1.46-3.91-3.44-6.51-6.03-7.96-3.73-2.08-8.49-1.7-14.98,1.2l-.21.09-.17.15c-.89.78-1.82,1.54-2.75,2.3-5.72,4.67-12.2,9.96-8.15,19.77l.08.16c10.37,18.44,17.32,37.2,22.75,53.1,1.8,5.4,3.65,10.71,5.43,15.84,5.05,14.54,9.82,28.27,13.64,43.74.84,3.45,3.51,6.03,7.34,7.15,3.64,6.08,15.35,6.42,23.22-1.94,6.1-6.5.52-16.17-.21-23.36-1.88-17.54,3.14-43.88,14.98-63.1,3.74,7.11,9.27,17.53,13.58,25.2,6.87,12.04,14.85,27.77,19.41,38.24.68,1.6,1.33,3.36,1.96,5.06,2.35,6.36,4.77,12.94,10.17,15.03.38.15.77.26,1.17.36,3,4.09,7.33,5.89,14.89,1.98,13.99-7.28,12.93-15.86,10.77-23.42-3.69-12.84,1.68-23.03,3.24-37.63h-.02c3.62-32.05,8.59-54.84,14.23-81.42.7-3.4-.81-5.66-3.34-6.95Z"/><path class="cls-4" d="m307.22,364.43c-2.92-32.06-7.04-57.73-.45-77.36-.95-2.31-2.19-4.28-3.64-5.97-8.36-20.19-35.48-15.6-46.75-12.69l-.28.1c-11.81,5.7-26.74,7.99-39.92,10.01-13.35,2.05-24.87,3.81-30.66,8.62l-.23.19-.14.27c-3.22,6.16-1.81,11.28.53,19.77.27.98.55,2.01.85,3.1.24,1.53.97,2.75,2.17,3.61,1.15.83,2.64,1.24,4.3,1.39,0,.02,0,.03.01.05.91,6.49,12.84,3.09,18.62,2.22,18.96-2.95,38.44-15.52,64.04-13.79.64.16,1.22.34,1.77.51.44,1.35.24,2.98-.02,5.05-.24,1.9-.52,4.06-.29,6.39.07.98.17,1.94.28,2.87.33,2.94.59,5.33-.45,7.27-12.24-3.62-23.65-6.48-37.75-5.75-25.25,1.48-41.65,13.61-54.85,40.56-9.06,18.63,1.65,42.25,11.74,52.35,2.66,2.69,5.46,4.81,8.36,6.43,24.07,20.78,58.87-2.01,80.01-21.05.38,1.14.7,2.6,1.07,4.78,1.23,7.22,2.4,12.51,6.22,14.78.92.55,1.95.88,3.11,1.02,2.01,3.87,5.34,5.07,12.12,2.76h.01c11.19-3.8,16.43-12.58,11.91-20.45-6.11-10.57-10.39-21.73-11.69-37.07Zm-101.69,17.09c12.2-16.28,20.45-21.99,41.17-26.7,7.67-1.83,16.63-1.79,23.26,1.1.85.96,1.55,2.04,2.06,3.25-9.77,13.1-27.08,28.46-54.69,28.82-5.49.07-9.88-.77-12.7-2.34,0-1.24.3-2.62.91-4.14Z"/><path class="cls-4" d="m445.09,276.07c-.15-5.41-1.72-8.43-4.07-10.02-.6-2.56-1.69-4.52-3.28-5.92-3.19-2.8-7.8-2.73-11.45-2.36-.97.1-2,.13-3,.17-3.52.12-7.16.24-9.14,3.08-1.72,2.48-1.69,6.54.14,12.71-4.47-.09-9.76-1.67-15.33-3.33-10.19-3.04-21.73-6.48-32.01-1.88-30.74,13.5-34.75,24.99-44.44,52.77-8.5,24.56-2.66,58.43,18.8,70.44,2.55,2.23,5.41,4.1,8.61,5.5,22.76,10.01,55.49,4.82,76.23-15.94,1.85,8.36,2.17,14.63-3.02,24-7.57,14.03-20.37,13.72-37.63,11.75-2.66-.29-5.43-.51-8.11-.74-10.63-.88-21.62-1.78-28.94-6.48-2.67-1.68-5.45-1.83-8.04-.45-5.48,2.93-8.64,12.03-8.84,19.1-.17,6.1,1.71,10.79,5.15,12.89,1.22.75,2.45,1.45,3.7,2.1.58.8,1.27,1.48,2.1,1.98,9.28,5.67,18.83,8.51,32.72,9.89,23.31,2.36,44.41-3.55,62.02-22.77h-.03c16.29-17.96,16.45-35.97,17.33-60.35.57-15.47-3.3-24.08-4.83-39.41-2.15-20.9-3.93-33.17-4.63-56.73Zm-100.05,82.2c-3.36-7.87-3.77-18.19-1.09-27.03,5.34-17.43,24.5-24.37,39.16-25.39h0c12.18-.86,23.44-1.31,31.95,2.9,1.46,1.47,2.77,3.21,3.92,5.26,4.08,15.11-3.06,29.24-20.12,39.8-14.72,9.05-37.33,12.41-46.95,9.28-2.71-.91-5-2.6-6.88-4.83Z"/><path class="cls-4" d="m638.46,323.81c.65-4.01.84-6.72.7-8.45.63-6.1-.28-7.92-1.85-8.54-1.37-.53-2.8.19-4.45,1.9.54-6.39-.06-12.53-.71-16.15-.49-3.23-1.1-5.9-1.46-7.51-.11-.48-.2-.87-.26-1.15-.56-2.74-1.72-4.5-3.44-5.24-2.14-.91-4.21.16-4.72.45-2.48,1.22-2.15,5.17-1.61,11.67,1.53,18.31,4.72,56.4-54.2,69.04-3.77.81-8.44,2.36-13.86,4.17-12.55,4.17-29.01,9.64-39.61,6.66,4.18-11.72,12.77-21.38,21.11-34.82,12.6-20.51,17.06-27.13,31.05-44.47v.02c11.02-2.87,13-21.48,8.27-32.37-.69-1.14-1.53-2.09-2.49-2.87-.32-1.07-.69-2.11-1.12-3.09l-.09-.17c-6.85-11.41-26.45-5.87-40.75-1.82l-.51.14c-12.5,3.44-22.07,4.82-31.33,6.15-7.49,1.08-14.57,2.1-22.64,4.13-1.4.35-2.97.6-4.63.86-5.95.94-12.69,2-14.36,8.5-3,12.6-2.32,21.21,2.02,25.59,1.31,1.33,2.93,2.22,4.81,2.73,2.66,4.21,7.55,5.14,13.61,3.78,12.71-3,34.3-13.29,48.17-11.1-15.74,33.7-34.12,61.59-56.39,94.33l-.11.19c-3.15,6.46.19,12.53,2.88,17.4.24.43.47.85.69,1.26l.13.24.2.18c1.7,1.48,3.5,2.48,5.35,3.1.21.38.42.76.62,1.14,9.2,8.02,21.31.63,33.44-3.25,17.61-5.66,69.12-16.82,90.14-25.94,31.82-13.81,34.84-41,37.38-56.68Z"/><path class="cls-4" d="m611.25,395.2s46.34-7.24,46.9-54.22c0,0-9.03,35.3-46.9,54.22Z"/><path class="cls-4" d="m635.79,262.25s-13.78-20.8-28.76,14.17c0,0,13.6-21.82,28.76-14.17Z"/><g><path class="cls-3" d="m170.76,284.05l.66-3.09c.41-1.96-.05-3.46-1.41-4.57-2.77-2.27-9.07-2.51-13.76-.53-1.63.69-4.39,2.22-4.6,4.78-.33,4.04-.59,7.78-.84,11.36-1.02,14.49-1.83,25.93-5.77,42.4-.8,3.19-1.38,6.02-1.94,8.76-1.58,7.72-2.95,14.39-8.25,22.78l-1.13,1.79-1.31-1.67c-14.95-18.96-20.19-30.2-27.46-52.35-1.05-3.23-1.6-6.84-2.14-10.34-.84-5.46-1.71-11.1-4.44-15.38-4.45-2.12-13.76-2.31-20.04.64-3.45,1.62-5.51,3.91-6.11,6.81-1.54,7.17-2.7,14.75-3.82,22.08-1.63,10.64-3.17,20.68-5.74,29.42-2.23,7.57-5.78,14.77-10.29,20.81l-1.51,2.02-1.06-2.29c-7.14-15.44-10.54-31.38-14.15-48.26-.89-4.15-1.8-8.45-2.79-12.83l-.02-.13c-1.15-8.54-3.36-13.62-6.78-15.52-2.8-1.56-6.64-1.17-12.09,1.23-.87.75-1.76,1.48-2.66,2.22-5.6,4.57-10.44,8.52-7.31,16.22,10.46,18.63,17.47,37.51,22.94,53.53,1.8,5.39,3.64,10.69,5.42,15.81,5.08,14.61,9.87,28.4,13.72,44.01.61,2.49,2.57,4.29,5.53,5.07,4.31,1.14,10.94-.13,16.02-5.54,3.83-4.08,2.3-9.87.82-15.48-.62-2.36-1.21-4.58-1.43-6.71-1.95-18.15,3.4-47.15,17.4-67.42l1.42-2.05,1.15,2.22c.11.2,10.6,20.44,17.71,33.1,6.91,12.12,14.95,27.96,19.56,38.53.72,1.68,1.38,3.47,2.02,5.21,2.12,5.74,4.3,11.67,8.44,13.27,2.41.93,5.45.43,9.28-1.56,13.02-6.78,12.09-14.42,10.02-21.68-2.57-8.95-.89-16.78.88-25.07.78-3.64,1.58-7.38,2.11-11.48h-.01l.19-1.67c3.49-30.87,8.17-52.93,13.6-78.47Z"/><path class="cls-3" d="m198.23,411.1c25.81,26.1,66.14-5.89,82.28-20.85l1.22-1.13,1,1.33c.51.68.97,1.26,1.37,1.78,2.35,2.99,3.32,4.22,4.4,10.66,1.06,6.21,2.08,11.09,4.8,12.71,1.71,1.02,4.39.88,8.2-.42l.82-.28c5.55-2.07,9.56-5.5,11.07-9.5,1.06-2.82.79-5.76-.78-8.5-7.04-12.18-10.71-23.81-11.88-37.69-.45-4.92-.93-9.7-1.39-14.32-2.58-25.83-4.62-46.28.83-63.1-7.67-17.39-32.38-13.19-42.89-10.5-12.19,5.85-27.3,8.16-40.63,10.21-12.72,1.95-23.72,3.64-28.96,7.77-2.5,4.99-1.35,9.16.9,17.31.28,1.01.57,2.08.88,3.21l.04.18c.11.75.41,1.29.96,1.69,2.43,1.75,8.75.57,12.94-.21,1.1-.21,2.13-.4,3.01-.53,6.8-1.06,13.72-3.39,21.04-5.87,12.56-4.24,26.8-9.05,43.33-7.94l.27.04c10.65,2.74,10.02,7.61,9.36,12.76-.23,1.83-.48,3.72-.28,5.76.07.98.17,1.9.27,2.79.41,3.73.81,7.25-1.63,10.29l-.63.79-.97-.29c-11.1-3.3-21.41-6.05-33.54-6.05-1.39,0-2.81.04-4.25.11-24.33,1.43-39.5,12.69-52.32,38.88-4.69,9.63-3.22,20.05-1.17,27.09,2.45,8.38,7.06,16.54,12.34,21.83Zm.9-35.5l.07-.18.12-.16c12.7-16.95,21.35-22.56,42.03-27.26,13.77-3.29,29.79-.6,33.78,10.91l.26.74-.46.63c-10.08,13.79-28.25,30.32-57.56,30.71-.21,0-.41,0-.61,0-8.52,0-14.61-2.08-17.21-5.88-1.77-2.6-1.91-5.8-.41-9.52Z"/><path class="cls-3" d="m338.28,438.8c9.01,5.51,18.31,8.31,32.09,9.68,24.29,2.45,43.83-4.46,59.69-21.14l1.04-1.15c15.44-17.02,16.04-33.89,16.86-57.24l.08-2.16c.34-9.32-.98-16.22-2.37-23.52-.91-4.76-1.85-9.69-2.45-15.68-.42-4.1-.83-7.88-1.22-11.47-1.59-14.74-2.85-26.38-3.42-45.36-.11-4.07-1.04-6.8-2.83-8.38-1.83-1.61-4.57-2.09-9.17-1.62-1.07.11-2.15.15-3.2.18-2.91.1-5.66.19-6.78,1.8-1.27,1.83-.9,5.85,1.13,11.96l.6,1.8-1.89.17c-5.39.47-11.68-1.4-18.34-3.38-10.16-3.03-20.67-6.16-29.94-2.01-29.55,12.98-33.17,23.33-42.83,51.02-4.14,11.95-4.69,26.68-1.47,39.4,3.56,14.06,11.24,24.29,21.64,28.82,22.37,9.84,57.91,5,78.65-20.11l1.93-2.33.69,2.95c.36,1.56.73,3.03,1.07,4.44,2.81,11.49,4.67,19.08-2.09,31.29-8.44,15.64-22.76,15.33-40.59,13.29-2.61-.28-5.36-.51-8.02-.73-10.99-.91-22.36-1.84-30.31-6.94-.97-.61-1.91-.92-2.83-.92-.74,0-1.46.19-2.18.58-3.87,2.07-7.06,9.33-7.26,16.54-.14,4.99,1.21,8.72,3.71,10.24Zm62.16-82.42c-11.67,7.17-27.64,10.87-39.33,10.87-3.99,0-7.48-.43-10.13-1.3-13.79-4.63-18.16-25.06-13.47-40.5,2.55-8.33,8.2-14.96,16.79-19.72,6.38-3.54,14.26-5.87,22.3-6.61v-.03l1.4-.1c16.33-1.14,34.83-2.42,43.7,13.75l.13.32c4.57,16.57-3.03,31.96-21.39,43.32Z"/><path class="cls-3" d="m498.26,402.22c2.36-.89,4.8-1.81,7.23-2.59,6.31-2.03,16.78-4.71,28.9-7.83,21.24-5.45,47.68-12.24,61.1-18.06,30.17-13.1,37.35-37.4,40.13-54.54,1.05-6.5.76-8.71.54-9.42-.69.4-2.18,1.87-5.33,6.62-.92,1.39-1.59,2.4-2.84,1.7-1.25-.69-.67-1.98-.36-2.68,4.59-10.15,1.25-24.87.15-29.7-.12-.51-.21-.93-.27-1.22-.34-1.66-.93-2.75-1.67-3.07-.89-.39-2.04.28-2.05.29l-.17.09c-.62.67-.25,5.14.05,8.73,1.6,19.16,4.94,59.03-56.56,72.22-3.6.77-8.43,2.38-13.54,4.08-16.43,5.47-36.88,12.27-47.73,3.52l-.75-.61.24-.94c2.53-9.79,8.02-17.73,14.38-26.93,2.65-3.84,5.4-7.81,8.13-12.21,12.53-20.39,16.9-26.96,31.16-44.62l1.05-1.3.55.55c2.65-.94,4.78-3.04,6.34-6.23,3.15-6.47,3.22-16.66.18-23.75-5.73-9.32-23.98-4.17-37.32-.39l-.52.15c-12.69,3.49-22.36,4.88-31.71,6.23-7.42,1.07-14.42,2.08-22.33,4.07-1.53.38-3.16.64-4.89.91-5.53.87-10.75,1.7-11.92,6.25-2.7,11.33-2.27,19.21,1.24,22.76,2.28,2.31,5.97,2.91,10.97,1.78,3.77-.89,8.44-2.47,13.38-4.14,15.2-5.14,34.12-11.55,43.72-3.38l.86.74-.47,1.03c-16.1,35.12-34.92,63.71-57.85,97.42-2.39,5.03.4,10.08,2.85,14.54.19.35.38.7.57,1.04,6.68,5.61,15.37,2.33,24.57-1.13Z"/></g></g><g id="Layer_11"><g><path class="cls-3" d="m162.19,476.66c-.57-.36-.98-.89-1.23-1.6-.17-.51-.16-.93.03-1.28.2-.35.48-.67.84-.97.37-.3.79-.58,1.28-.86s.94-.58,1.37-.92c.49-.4.99-.8,1.52-1.22.53-.41,1.13-.92,1.81-1.53.68-.6,1.47-1.35,2.36-2.24.89-.89,1.94-2,3.15-3.33.24-.28.3-.57.18-.89-.13-.31-.34-.61-.64-.9-.3-.28-.65-.54-1.04-.77-.4-.23-.75-.37-1.05-.43-.46.09-.91.13-1.33.1s-.83-.05-1.23-.08-.83-.03-1.3-.02c-.46.01-.98.12-1.54.31-.87.29-1.68.7-2.44,1.22-.76.52-1.48,1.12-2.16,1.81s-1.34,1.41-1.97,2.19c-.63.77-1.24,1.56-1.81,2.36-.35.5-.82.72-1.41.66s-1.11-.27-1.54-.64c-.54-.43-.85-.98-.93-1.65-.08-.67.14-1.31.67-1.9.86-.99,1.76-1.84,2.7-2.54s1.85-1.44,2.72-2.21c.53-.47,1.04-.91,1.54-1.32s.97-.83,1.42-1.26c.45-.44.88-.9,1.3-1.38.42-.49.85-1.05,1.3-1.69.21-.4.19-.84-.06-1.31s-.6-.76-1.06-.87c-.98-.23-1.93-.43-2.86-.58-.92-.15-1.8-.25-2.65-.31-.84-.05-1.62-.03-2.32.06-.7.09-1.32.27-1.85.55-.59.29-1.09.63-1.5,1.02-.42.39-.9.83-1.45,1.32-.53.48-.97.96-1.31,1.46-.35.5-.66.96-.92,1.4-.27.44-.53.84-.78,1.21-.26.37-.53.67-.81.91-.3.22-.65.36-1.04.42-.39.06-.8.02-1.22-.12-.32-.13-.61-.29-.88-.51s-.48-.46-.64-.75c-.16-.28-.23-.59-.23-.91s.14-.63.4-.93c1.37-1.57,2.73-2.95,4.11-4.15,1.37-1.2,2.7-2.36,3.99-3.5s2.54-2.31,3.74-3.52c1.2-1.21,2.31-2.61,3.34-4.2.2-.32.43-.6.67-.84.26-.26.56-.43.88-.53s.68-.1,1.07,0c.39.1.81.32,1.27.67.2.16.42.33.67.5.25.18.43.36.55.56.12.2.16.43.13.68s-.2.52-.51.82c-.29.4-.57.7-.84.91-.27.21-.55.4-.84.58-.28.18-.56.37-.84.58-.27.21-.55.51-.84.91.8.33,1.58.56,2.36.68.77.12,1.55.22,2.33.29s1.58.17,2.39.29,1.66.37,2.54.74c.44.25.8.56,1.09.93s.49.77.6,1.2c.12.42.13.86.04,1.3-.09.44-.3.83-.65,1.17-.35.38-.69.72-1.02,1.03-.34.31-.57.72-.69,1.24-.14.22,0,.36.46.41.45.06,1.08.1,1.88.13s1.69.1,2.66.2,1.9.3,2.79.58,1.66.71,2.3,1.3c.64.58,1.03,1.36,1.16,2.35-.78,1.39-1.67,2.67-2.66,3.84-.99,1.16-2.04,2.3-3.16,3.41-1.12,1.11-2.28,2.24-3.48,3.39-1.2,1.15-2.39,2.42-3.57,3.81-.37.44-.66.87-.88,1.3s-.42.82-.62,1.17-.43.64-.7.87c-.27.23-.65.34-1.13.33-.76.03-1.43-.14-2-.49l.02-.02Z"/><path class="cls-3" d="m186.96,495.4c-.79.25-1.68.17-2.69-.25-.49-.2-.84-.42-1.05-.66s-.32-.51-.31-.81c0-.3.09-.63.27-.97.18-.35.41-.75.7-1.21.19-.29.32-.52.4-.69s.13-.33.17-.49c.03-.16.05-.31.06-.46s.03-.36.06-.63c-1.35.03-2.82-.05-4.41-.22-1.59-.18-3.08-.52-4.47-1.05-1.39-.52-2.57-1.28-3.55-2.27-.97-.99-1.5-2.29-1.58-3.9-.04-.64.03-1.37.2-2.2.17-.82.44-1.62.82-2.41.38-.78.86-1.52,1.46-2.19.59-.67,1.31-1.17,2.14-1.5,1.37-.56,2.62-.93,3.76-1.12s2.2-.22,3.18-.09,1.89.4,2.73.8,1.66.91,2.47,1.54c.99.81,1.82,1.65,2.49,2.53s1.33,1.86,1.99,2.95c.38-.07.67-.25.89-.55.21-.3.45-.62.72-.95.23-.29.47-.53.73-.73s.47-.4.62-.63.22-.48.19-.77c-.03-.29-.2-.69-.53-1.19-.82-.85-1.68-1.54-2.6-2.07s-1.83-1.01-2.73-1.42-1.79-.8-2.65-1.17-1.67-.79-2.42-1.26c-.22-.13-.49-.3-.82-.5s-.62-.41-.88-.63c-.26-.22-.46-.45-.6-.68-.14-.24-.13-.49.04-.75.45-.91.82-1.6,1.11-2.08.28-.48.73-.84,1.35-1.08.65.04,1.42.31,2.3.82s1.83,1.09,2.85,1.75c1.01.66,2.09,1.33,3.22,1.99,1.14.67,2.28,1.16,3.43,1.48.67.34,1.34.76,2.02,1.25.68.49,1.26,1.04,1.75,1.63.49.6.84,1.25,1.04,1.97.2.71.16,1.46-.13,2.25-.83.47-1.62,1.06-2.36,1.78s-1.48,1.54-2.23,2.45-1.51,1.9-2.28,2.97c-.78,1.07-1.61,2.2-2.49,3.38-.85,1.14-1.49,2.23-1.93,3.28-.44,1.05-.77,2.11-1,3.19-.16.81-.64,1.34-1.43,1.59l-.02-.02Zm.56-12.97c-.12-.5-.33-.98-.64-1.44s-.7-.89-1.18-1.29c-.48-.41-.96-.75-1.46-1.03-.85-.48-1.62-.86-2.31-1.12-.69-.27-1.37-.45-2.03-.55-.66-.1-1.35-.12-2.07-.07s-1.54.17-2.44.37c-.82.41-1.12.97-.91,1.69.21.72.74,1.45,1.58,2.17.86.74,1.76,1.35,2.69,1.82.93.47,1.87.81,2.83,1.01s1.93.29,2.92.27c.99-.02,1.96-.13,2.9-.33.2-.49.25-.99.13-1.49h0Z"/><path class="cls-3" d="m218.51,488.67c-.23.34-.46.59-.68.73-.22.14-.46.21-.7.19-.24-.02-.5-.07-.77-.18-.7-.27-1.53-.54-2.48-.82-.95-.27-1.76-.42-2.42-.43-1.03,0-1.96,0-2.8.01-.83.02-1.61.09-2.35.22-.73.13-1.43.31-2.1.55-.67.24-1.35.59-2.04,1.06-.37.27-.65.48-.84.63s-.37.31-.53.49-.34.43-.54.74c-.18.29-.44.71-.79,1.27-.41.65-.76,1.29-1.07,1.92-.31.63-.59,1.24-.84,1.83-.25.6-.5,1.18-.74,1.75s-.52,1.11-.83,1.62c-.43.74-.86,1.12-1.29,1.15-.44.03-.91-.05-1.43-.24-.33-.11-.65-.26-.94-.46-.29-.2-.52-.45-.67-.74-.15-.29-.22-.63-.2-1s.17-.8.47-1.29c.98-1.53,2.01-3.08,3.06-4.64s2.11-3.16,3.16-4.79c1.04-1.62,2.03-3.28,2.97-4.97s1.77-3.43,2.52-5.21c.43-1.07,1.02-1.6,1.78-1.6s1.63.53,2.64,1.6c.35.52.46.98.34,1.39-.12.41-.34.8-.64,1.15-.31.36-.63.74-.96,1.14-.33.4-.53.84-.6,1.33.71.1,1.6.1,2.67-.02,1.08-.12,2.18-.21,3.32-.29,1.13-.08,2.22-.09,3.27-.05,1.04.05,1.89.27,2.54.68.41.26.75.7,1.02,1.34.27.64.37,1.47.3,2.5-.31.61-.58,1.08-.81,1.43h0Z"/><path class="cls-3" d="m231.35,516.6c-.4.49-.91.91-1.54,1.26-.63.36-1.27.58-1.9.68-.63.1-1.05-.06-1.26-.48-.28-.26-.47-.55-.57-.87s-.18-.68-.25-1.09c-.07-.41-.15-.88-.26-1.41-.11-.53-.32-1.11-.64-1.74-.37-.78-.73-1.52-1.07-2.21-.34-.69-.68-1.37-1.02-2.04-.33-.67-.69-1.34-1.07-2.02s-.83-1.39-1.34-2.15c-.36-.56-.81-1.03-1.36-1.43s-1.17-.73-1.86-1.01c-.67,1.04-1.19,1.88-1.58,2.55-.39.66-.7,1.26-.92,1.78s-.42,1.04-.6,1.56c-.17.52-.37,1.13-.6,1.84-.16.46-.52.81-1.06,1.05s-1.1.3-1.68.17c-.74-.17-1.23-.4-1.46-.69s-.34-.6-.32-.94c.02-.34.11-.68.27-1.03s.28-.69.38-1.02c1.83-2.64,3.4-5.3,4.69-7.97,1.29-2.67,2.55-5.31,3.76-7.91.47-1.03.93-1.98,1.35-2.85.42-.87.84-1.71,1.26-2.51.41-.81.83-1.65,1.24-2.52s.84-1.83,1.29-2.88c.19-.45.54-.65,1.06-.62s1.03.19,1.53.47c.5.27.9.62,1.2,1.04s.33.78.07,1.1c-.42.52-.77,1-1.06,1.43s-.56.84-.8,1.24-.49.83-.74,1.27c-.25.45-.56.96-.94,1.53-.04.08-.16.3-.38.67-.21.37-.45.82-.71,1.36-.25.51-.51,1.05-.78,1.63-.27.58-.51,1.13-.72,1.66s-.38.99-.5,1.39-.13.66-.02.77c1.24.04,2.47-.03,3.67-.22s2.41-.39,3.63-.62c1.22-.23,2.46-.49,3.72-.81,1.26-.31,2.49-.73,3.7-1.25.57-.13,1.04-.13,1.42,0,.38.14.68.36.91.66.23.3.4.64.49,1.03.1.38.17.72.21,1.03.08.86-.02,1.52-.32,1.96s-.69.77-1.19.98c-.5.21-1.07.35-1.72.41s-1.3.15-1.96.27c-.74.15-1.47.25-2.22.31-.74.06-1.47.15-2.19.26-.72.11-1.43.25-2.14.44s-1.41.46-2.09.83c.45.89.84,1.65,1.18,2.29.33.64.7,1.34,1.08,2.1.39.76.74,1.45,1.06,2.09.39.76.72,1.44,1.01,2.06.28.62.56,1.22.84,1.81.28.6.58,1.21.9,1.84.32.63.72,1.35,1.18,2.14.22.39.13.83-.27,1.32h.01Z"/><path class="cls-3" d="m249.32,526.23c-1.62-.09-3.19-.34-4.71-.74s-2.94-1.01-4.26-1.82-2.49-1.89-3.49-3.24c-.74-1.05-1.34-2.19-1.8-3.41-.46-1.23-.48-2.59-.08-4.07.8-2.94,1.94-5.46,3.41-7.56s3.23-3.63,5.26-4.6c1.2-.57,2.45-.87,3.78-.9,1.32-.03,2.62.13,3.9.47s2.5.84,3.65,1.49c1.16.65,2.13,1.38,2.92,2.21.56.56.91,1.3,1.07,2.23.15.93.17,1.87.04,2.82s-.35,1.85-.68,2.7-.68,1.49-1.05,1.94c-1.21,1.38-2.51,2.26-3.89,2.65-1.39.39-2.83.49-4.34.32s-3.04-.5-4.6-.99-3.11-.93-4.66-1.33c-.44.23-.77.42-.97.56s-.2.49,0,1.04c.33,1.02.85,1.84,1.55,2.47.7.62,1.51,1.1,2.43,1.44s1.93.58,3.03.71,2.22.23,3.37.31c.59.03,1.19,0,1.79-.07.6-.07,1.17-.14,1.72-.2s1.06-.08,1.53-.05.87.17,1.21.41c.26.21.4.59.44,1.13.04.54,0,1.1-.14,1.69s-.33,1.12-.61,1.59c-.27.47-.59.75-.95.84-1.63.09-3.25.09-4.88,0v-.04Zm4.59-18.54c-.53-.58-1.15-1.06-1.84-1.44s-1.44-.65-2.25-.79c-.81-.15-1.62-.16-2.45-.03-.41.06-.97.14-1.68.22-.71.08-1.41.22-2.11.41s-1.32.45-1.86.79c-.54.33-.82.79-.84,1.35,0,.36.11.64.36.85.24.21.54.37.89.49s.71.24,1.1.34c.38.11.69.26.92.46.8.13,1.7.31,2.72.55,1.01.24,2.04.39,3.07.45,1.03.06,2.01-.01,2.93-.23s1.69-.73,2.3-1.54c-.3-.68-.72-1.31-1.25-1.89h-.01Z"/><path class="cls-3" d="m281.07,513.11c-.56.71-1.26,1.03-2.08.96-1-.09-2.02-.26-3.07-.52-1.05-.26-2.08-.49-3.1-.68-1.02-.19-1.99-.32-2.91-.37s-1.75.06-2.49.36c-1.03,2.27-1.75,4.4-2.18,6.4-.42,2-.46,3.98-.1,5.93.05.3.16.54.34.71.18.17.39.3.65.39.26.09.54.14.86.16.32.02.64.02.96,0,.76-.12,1.42-.34,1.99-.67.57-.33,1.1-.73,1.57-1.19s.91-.93,1.32-1.42c.4-.49.82-.95,1.24-1.37.52-.49,1.08-.66,1.67-.51s1.06.49,1.41,1.01c.73,1.13,1.05,2.08.98,2.83-.07.76-.5,1.47-1.27,2.13-1.07.95-2.29,1.84-3.66,2.67-1.38.83-2.81,1.63-4.3,2.39-.56.28-1.14.46-1.75.55-.61.09-1.18.1-1.74.03-.55-.07-1.06-.22-1.52-.44s-.81-.51-1.05-.86c-.71-1.59-1.13-3.19-1.27-4.78-.14-1.59-.12-3.2.06-4.82s.45-3.26.82-4.91.73-3.34,1.08-5.06c-.53-.12-.84-.42-.93-.9-.09-.47-.08-1.01.03-1.61.11-.6.28-1.22.52-1.85s.43-1.15.58-1.55c.21-.01.49-.03.85-.06.36-.03.58-.11.67-.24.2-.24.36-.54.47-.88s.18-.69.23-1.06.09-.74.13-1.11.11-.7.21-1c.16-.57.46-.98.9-1.21s1.08-.32,1.94-.27c.42.19.82.35,1.2.5.37.15.6.37.67.68.1.32.1.67,0,1.07-.11.4-.25.8-.44,1.21-.18.41-.37.83-.56,1.27s-.32.87-.39,1.29c.59.34,1.31.59,2.14.74.84.15,1.71.26,2.61.33.9.06,1.81.1,2.71.11.9,0,1.7.02,2.4.04.43.01.84.06,1.22.13s.69.21.95.42c.26.21.44.49.54.85.1.36.12.84.04,1.43-.2,1.12-.59,2.04-1.15,2.75h0Z"/><path class="cls-3" d="m310.68,524.05c-.13.84-.35,1.59-.66,2.25-.08.56-.39.91-.94,1.03-.55.12-1.2.16-1.96.11s-1.55-.14-2.39-.27c-.84-.13-1.58-.18-2.21-.15v.04c-.02.54-.03,1.17-.02,1.9,0,.73.01,1.45,0,2.18,0,.73-.04,1.4-.09,2.02-.05.6-.15,1.04-.29,1.34-.53.21-1.08.34-1.64.39-.56.05-1.06.03-1.49-.06s-.76-.24-.99-.43-.28-.42-.17-.7c.09-.76.18-1.46.25-2.12.07-.65.16-1.4.26-2.24.1-.85.21-1.75.32-2.71-1.01-.17-2.1-.36-3.27-.56-1.17-.2-2.24-.33-3.24-.39-.3-.82-.41-1.73-.34-2.72s.31-1.9.73-2.72c1.15-.47,2.31-.67,3.47-.6s2.29.21,3.38.42c.07-.51.13-.98.19-1.42.05-.44.09-.85.13-1.25.04-.42.04-.83,0-1.22-.04-.39-.06-.77-.07-1.16,0-.39.02-.75.09-1.1s.22-.71.46-1.09c.69-.37,1.43-.55,2.23-.56.8,0,1.55.14,2.27.43.16.41.23.93.19,1.56s-.13,1.28-.25,1.97c-.13.69-.29,1.39-.48,2.12s-.36,1.41-.5,2.05c.74-.02,1.51-.06,2.3-.12s1.52-.07,2.21-.04,1.27.13,1.77.3.83.46.99.88c-.02.91-.1,1.79-.23,2.63h0Z"/><path class="cls-3" d="m346.91,533.32c-.06.99-.19,1.92-.39,2.8s-.51,1.74-.92,2.58-.99,1.66-1.74,2.48c-1.62,1.76-3.38,2.94-5.28,3.55s-3.92.8-6.07.56c-1.29-.15-2.39-.36-3.31-.64s-1.8-.68-2.66-1.19c-.44-.28-.7-.78-.76-1.49-.06-.71.02-1.4.23-2.08s.53-1.22.96-1.62.91-.43,1.44-.09c.45.28.94.5,1.47.65.54.15,1.11.27,1.71.36.6.09,1.22.16,1.85.2.63.04,1.24.1,1.85.18.8.09,1.56.15,2.27.17.71.02,1.37-.03,1.97-.17.6-.14,1.15-.38,1.64-.72.49-.35.91-.86,1.27-1.53.33-.59.56-1.13.68-1.62s.17-.98.14-1.46-.11-.98-.23-1.5-.26-1.1-.41-1.75c-.92,1.11-2,2.02-3.24,2.73s-2.52,1.22-3.85,1.53c-1.33.31-2.66.42-3.97.32-1.32-.1-2.53-.4-3.64-.89-1.08-.47-1.96-1.2-2.64-2.18-.68-.98-1.16-2.07-1.45-3.28-.29-1.2-.41-2.46-.35-3.76s.28-2.5.66-3.61c.46-1.31.87-2.43,1.26-3.35.38-.92.85-1.74,1.4-2.44s1.24-1.34,2.08-1.91c.83-.56,1.92-1.15,3.28-1.75.75-.33,1.51-.45,2.3-.36s1.57.25,2.36.47c.78.22,1.54.43,2.26.64.73.21,1.39.29,1.98.26-.28-.81-.4-1.41-.35-1.81.04-.4.18-.67.4-.82.22-.14.49-.22.82-.22s.66-.02,1-.04c.31-.02.62-.02.92,0,.3.02.56.11.78.25s.41.36.55.65c.15.29.22.69.23,1.2.01,1.08.05,2.05.1,2.9.05.85.12,1.67.2,2.46.08.79.16,1.58.24,2.37s.17,1.67.26,2.63c.07.71.17,1.35.27,1.92.11.58.21,1.14.3,1.69s.17,1.11.24,1.67c.06.56.08,1.2.04,1.92-.04,1.11-.09,2.16-.16,3.15h.01Zm-6.47-14.47c-.54-.36-1.14-.62-1.82-.76s-1.4-.21-2.17-.2c-.77,0-1.56.04-2.39.09-.68.04-1.38.16-2.11.35-.73.19-1.43.46-2.1.82s-1.28.82-1.81,1.4-.92,1.26-1.15,2.04c-.21.7-.32,1.42-.33,2.16s.08,1.44.27,2.12c.19.67.47,1.26.86,1.76.39.5.87.85,1.46,1.04.46.14,1.05.22,1.76.23s1.48-.06,2.29-.21c.82-.15,1.64-.37,2.48-.65s1.6-.63,2.28-1.04c1.53-.93,2.66-2.03,3.37-3.32.71-1.28.86-2.71.45-4.28-.36-.66-.8-1.17-1.34-1.54h0Z"/><path class="cls-3" d="m366.58,509.99c.05.41.05.74-.03,1-.07.26-.2.46-.39.61s-.42.27-.69.38c-.7.26-1.5.61-2.4,1.03-.89.43-1.59.85-2.1,1.28-.78.68-1.47,1.3-2.08,1.86s-1.15,1.14-1.61,1.72c-.46.58-.87,1.18-1.21,1.8s-.62,1.34-.83,2.15c-.1.45-.17.79-.21,1.03s-.07.48-.07.72.03.55.09.91c.06.33.14.83.25,1.47.13.76.28,1.47.47,2.15s.38,1.32.59,1.93.41,1.21.61,1.8.35,1.17.45,1.76c.17.84.1,1.41-.21,1.72s-.72.57-1.23.77c-.32.14-.66.23-1.01.28-.35.04-.68,0-.99-.11s-.58-.33-.82-.62c-.24-.29-.4-.72-.5-1.28-.28-1.8-.53-3.63-.78-5.51-.25-1.87-.51-3.77-.81-5.68-.29-1.91-.65-3.81-1.07-5.69-.42-1.89-.94-3.74-1.57-5.57-.39-1.09-.3-1.88.27-2.38s1.58-.68,3.04-.56c.6.16.99.43,1.17.82.18.39.28.82.28,1.29s.02.97.03,1.49c.02.52.16.98.43,1.4.6-.39,1.26-.98,1.99-1.78.73-.8,1.49-1.6,2.29-2.42.8-.81,1.6-1.55,2.42-2.2.81-.66,1.59-1.05,2.35-1.17.48-.08,1.03.03,1.65.32.63.3,1.25.86,1.88,1.67.17.66.28,1.2.34,1.61h0Z"/><path class="cls-3" d="m392.82,510.85c.62,1.24.95,2.59.99,4.04.04,1.45-.18,2.93-.67,4.44-.49,1.51-1.16,2.89-2.02,4.14-2.93,4.16-6.89,5.89-11.9,5.18-.71-.1-1.35-.23-1.93-.41-.58-.17-1.13-.39-1.64-.64s-1.02-.54-1.51-.88-1.03-.73-1.6-1.19c-.37-.28-.72-.54-1.02-.8-.31-.25-.6-.51-.86-.77-.27-.26-.52-.57-.75-.92s-.45-.77-.65-1.28c-.98-2.32-1.3-4.55-.96-6.68s1.31-4.19,2.9-6.18c.66-.81,1.31-1.51,1.97-2.11s1.37-1.1,2.13-1.49c.76-.39,1.57-.69,2.42-.91s1.8-.33,2.82-.36c.99-.04,1.86.04,2.62.25.75.22,1.47.5,2.15.85.67.36,1.38.77,2.1,1.24.73.48,1.56.96,2.49,1.46,1.34.74,2.31,1.74,2.93,2.98v.04Zm-5.37.06c-.48-.31-1.02-.53-1.61-.67-.59-.15-1.19-.23-1.82-.26s-1.26-.06-1.88-.09c-2.01-.11-3.83.24-5.46,1.06s-2.83,2.16-3.6,4.03c-.27.61-.51,1.21-.7,1.81-.2.6-.34,1.19-.41,1.76s-.06,1.13.06,1.69c.11.56.38,1.1.79,1.63.34.46.74.84,1.2,1.12.46.28.96.5,1.49.66s1.09.27,1.66.33,1.17.11,1.77.14c1.02.07,2.04-.02,3.05-.26,1.01-.24,1.94-.61,2.79-1.1s1.61-1.11,2.29-1.86c.67-.75,1.19-1.61,1.57-2.57.21-.59.42-1.15.61-1.68.19-.52.31-1.03.37-1.52.05-.49.02-.96-.12-1.43s-.4-.93-.8-1.41c-.35-.61-.77-1.07-1.25-1.37h0Z"/><path class="cls-3" d="m418.93,499.79c.77,1.15,1.28,2.44,1.51,3.87s.2,2.93-.09,4.49-.77,3.02-1.46,4.36c-2.36,4.51-6.07,6.74-11.13,6.69-.71,0-1.37-.05-1.97-.15-.6-.1-1.17-.24-1.71-.42s-1.08-.41-1.61-.67c-.53-.27-1.11-.59-1.74-.97-.41-.23-.78-.45-1.12-.66-.34-.21-.66-.43-.95-.66-.3-.23-.59-.5-.86-.81s-.54-.71-.81-1.18c-1.28-2.17-1.88-4.34-1.82-6.5s.75-4.33,2.07-6.5c.55-.88,1.11-1.67,1.68-2.35s1.21-1.26,1.91-1.75,1.46-.89,2.28-1.21,1.74-.56,2.75-.72c.98-.17,1.85-.2,2.63-.09.77.12,1.52.3,2.24.57s1.46.58,2.24.96,1.67.75,2.67,1.13c1.42.57,2.51,1.42,3.29,2.57h0Zm-5.31.75c-.52-.24-1.08-.39-1.68-.46-.6-.06-1.21-.07-1.84-.02-.63.05-1.25.1-1.88.16-2.01.15-3.76.74-5.27,1.76s-2.52,2.51-3.04,4.46c-.19.64-.34,1.27-.46,1.89s-.18,1.22-.18,1.79.09,1.13.28,1.67.52,1.04,1,1.52c.4.42.84.73,1.34.95.49.22,1.02.37,1.57.46s1.11.12,1.69.11c.58-.02,1.17-.05,1.77-.09,1.02-.07,2.02-.29,2.99-.66s1.84-.85,2.62-1.45c.78-.6,1.45-1.31,2.02-2.14.57-.83.98-1.75,1.23-2.75.14-.62.26-1.2.39-1.74.12-.54.18-1.06.17-1.56-.01-.49-.11-.96-.3-1.4s-.52-.88-.97-1.3c-.43-.56-.9-.96-1.42-1.2h-.03Z"/><path class="cls-3" d="m453.73,496.94c-.48.47-1.09.76-1.83.85-.53.06-.94-.05-1.24-.31s-.55-.61-.76-1.04c-.21-.42-.39-.9-.55-1.43-.16-.53-.36-1.05-.59-1.54-.28-.56-.56-1.15-.85-1.75-.29-.61-.65-1.31-1.09-2.11s-.99-1.73-1.66-2.8-1.52-2.34-2.55-3.81c-.22-.3-.49-.42-.83-.37-.33.05-.67.19-1.01.42-.35.23-.67.51-.98.85s-.53.65-.66.93c-.01.47-.08.91-.19,1.32-.12.41-.24.8-.35,1.19-.11.39-.22.81-.3,1.26-.09.45-.1.98-.04,1.57.09.91.3,1.79.65,2.65s.77,1.69,1.29,2.51c.51.82,1.08,1.62,1.69,2.41.62.79,1.25,1.55,1.9,2.29.41.45.52.96.33,1.52s-.51,1.02-.96,1.36c-.54.43-1.14.61-1.82.54-.68-.07-1.24-.43-1.71-1.08-.78-1.05-1.4-2.12-1.88-3.19s-.99-2.12-1.55-3.15c-.35-.62-.66-1.22-.95-1.79s-.59-1.13-.92-1.66c-.33-.53-.68-1.06-1.06-1.57-.38-.52-.83-1.06-1.35-1.64-.35-.29-.77-.37-1.29-.23-.52.13-.88.41-1.09.84-.45.91-.85,1.79-1.2,2.66s-.65,1.7-.89,2.51-.39,1.57-.46,2.28c-.07.71-.03,1.35.13,1.92.16.64.38,1.2.66,1.69s.61,1.06.97,1.71c.35.62.72,1.16,1.13,1.61s.8.85,1.16,1.21c.37.36.7.7,1.01,1.03s.54.66.71.99c.14.35.2.72.18,1.11-.02.4-.15.78-.39,1.16-.19.28-.42.53-.69.75s-.56.37-.87.46-.62.1-.93.02c-.31-.08-.59-.27-.82-.6-1.22-1.68-2.27-3.32-3.13-4.92-.86-1.6-1.71-3.16-2.53-4.67s-1.69-2.98-2.6-4.42-2.03-2.83-3.36-4.19c-.26-.27-.49-.55-.66-.84-.19-.31-.3-.64-.32-.97-.02-.34.06-.68.24-1.04.18-.36.49-.72.93-1.09.2-.16.42-.34.64-.54s.45-.34.67-.41.45-.06.69.03.47.31.69.68c.32.37.56.71.7,1.02s.27.63.38.94c.11.32.23.63.38.94.14.31.38.65.7,1.02.5-.7.89-1.42,1.18-2.15.29-.72.55-1.46.8-2.21.24-.75.51-1.5.81-2.27.3-.76.73-1.53,1.29-2.31.34-.37.72-.66,1.15-.85s.86-.3,1.3-.32c.44-.02.86.06,1.27.25.41.18.74.48.99.89.29.42.55.83.77,1.22.22.4.58.71,1.06.95.18.19.35.07.5-.36.16-.43.34-1.03.54-1.8.21-.78.47-1.63.79-2.55.31-.92.71-1.79,1.18-2.59.47-.81,1.06-1.46,1.77-1.96s1.56-.7,2.55-.61c1.19,1.07,2.24,2.22,3.15,3.44s1.79,2.5,2.62,3.84c.84,1.34,1.68,2.72,2.53,4.14s1.83,2.87,2.92,4.33c.34.46.7.84,1.07,1.14s.7.59,1,.86.53.56.69.88.19.71.07,1.18c-.14.75-.45,1.36-.92,1.84v-.07Z"/><path class="cls-3" d="m447.16,465.19c0,.82-.37,1.57-1.11,2.24-.81.72-1.62,1.15-2.45,1.28-.83.13-1.52-.17-2.07-.89-.29-.38-.53-.8-.71-1.25s-.14-.8.14-1.05c.21-.19.32-.49.35-.88.02-.39.13-.68.31-.85.4-.37.81-.69,1.26-.95.44-.26.89-.44,1.33-.53.45-.09.87-.08,1.26.03.39.12.72.35,1,.71.46.61.7,1.33.7,2.15h-.01Zm16.31,21.89c.1.28.12.55.06.81-.07.26-.2.53-.38.8-.19.27-.35.54-.49.83-.24.25-.48.47-.74.64-.26.18-.53.29-.82.33-.29.04-.59,0-.9-.12s-.62-.37-.93-.74c-.67-.78-1.26-1.49-1.79-2.14-.53-.65-1.04-1.29-1.52-1.92-.5-.66-.99-1.32-1.48-1.98-.49-.66-1.02-1.4-1.6-2.21-1.09-1.53-2.15-2.98-3.19-4.37-1.04-1.39-2.13-2.89-3.29-4.51-.33-.43-.41-.93-.25-1.5.16-.56.45-1.04.88-1.41.43-.38.92-.59,1.47-.64s1.07.23,1.56.82c.81,1.63,1.68,3.15,2.6,4.55s1.92,2.9,2.98,4.48c.55.83,1.09,1.58,1.61,2.26.5.66,1.02,1.27,1.57,1.85s1.14,1.14,1.78,1.67,1.34,1.08,2.12,1.63c.41.3.66.59.76.86h-.01Z"/><path class="cls-3" d="m484.64,469.54c.03.48-.18,1.02-.66,1.6-.4.78-.88,1.27-1.43,1.46s-1.2-.02-1.96-.64c-.75-.62-1.39-1.23-1.93-1.82-.53-.59-1.03-1.18-1.48-1.76-.45-.59-.9-1.19-1.36-1.82-.45-.63-.97-1.3-1.57-2.03s-1.3-1.5-2.1-2.32-1.78-1.73-2.94-2.72c-.39.08-.77.31-1.15.7-.38.38-.74.82-1.08,1.32s-.64,1.01-.89,1.55c-.26.54-.45,1-.57,1.37-.24.71-.48,1.44-.73,2.18s-.47,1.45-.67,2.12-.34,1.28-.44,1.83-.09.97.01,1.25c.17.53.37.97.6,1.33.22.36.47.68.73.97.25.27.51.55.8.83.29.28.59.62.91,1.01.44.52.92.98,1.45,1.36.53.38,1.05.75,1.54,1.1.49.36.92.73,1.29,1.11s.58.82.66,1.33c-.04.3-.07.6-.11.9-.03.3-.1.58-.21.85-.1.27-.26.5-.46.7-.2.2-.49.35-.85.45-.35.16-.73.08-1.15-.25s-.85-.78-1.3-1.35c-.45-.56-.91-1.17-1.36-1.82-.45-.65-.87-1.19-1.27-1.63-1.24-1.37-2.33-2.54-3.27-3.5-.95-.96-1.82-1.85-2.63-2.65s-1.57-1.58-2.29-2.32c-.73-.74-1.5-1.56-2.32-2.47-.62-.55-1.01-1.02-1.18-1.4s-.22-.72-.13-1c.08-.29.25-.56.49-.82s.48-.55.72-.88c.3-.43.62-.56.96-.4.33.16.69.45,1.07.87.36.4.73.85,1.09,1.34.37.49.72.87,1.07,1.13.17.19.36.05.58-.41.21-.46.43-1.03.64-1.7.22-.67.41-1.37.59-2.08s.31-1.23.41-1.55c.22-.77.49-1.6.81-2.48s.68-1.73,1.08-2.55c.41-.83.87-1.58,1.38-2.25.52-.68,1.09-1.18,1.71-1.51.58-.33,1.2-.43,1.85-.3.66.14,1.25.6,1.77,1.39.88,1.31,1.87,2.66,2.99,4.04s2.27,2.8,3.46,4.25c1.12,1.36,2.39,2.61,3.81,3.74,1.42,1.13,2.85,2.06,4.28,2.8.43.56.67,1.09.7,1.57l.04-.02Z"/><path class="cls-3" d="m501.78,447.09c.65.74,1.22,1.49,1.71,2.25.48.76.88,1.59,1.18,2.47.3.89.48,1.88.53,2.98.1,2.39-.3,4.47-1.2,6.24s-2.2,3.34-3.88,4.7c-1.01.81-1.94,1.45-2.78,1.9-.85.45-1.75.8-2.72,1.05-.52.12-1.05-.05-1.59-.51-.54-.46-.98-1-1.32-1.63s-.49-1.24-.47-1.82.34-.95.95-1.09c.51-.12,1.01-.31,1.5-.59s.97-.6,1.46-.96.97-.76,1.44-1.17c.47-.42.95-.81,1.43-1.18.63-.51,1.2-1,1.73-1.49.52-.49.94-.99,1.27-1.52.33-.52.54-1.08.64-1.67.1-.59.04-1.25-.19-1.98-.19-.65-.41-1.19-.67-1.63s-.58-.81-.94-1.13c-.36-.32-.77-.62-1.22-.9s-.96-.59-1.53-.94c.14,1.44.02,2.85-.35,4.22s-.91,2.64-1.63,3.81c-.71,1.17-1.57,2.18-2.57,3.04-1,.86-2.06,1.52-3.2,1.96-1.1.44-2.23.55-3.4.34s-2.29-.64-3.35-1.28c-1.06-.64-2.03-1.44-2.91-2.4s-1.58-1.96-2.09-3.01c-.61-1.25-1.11-2.33-1.49-3.25-.39-.92-.63-1.82-.74-2.71-.11-.89-.07-1.83.11-2.81.19-.99.54-2.18,1.07-3.56.29-.76.74-1.39,1.37-1.89.62-.5,1.28-.94,1.99-1.34s1.39-.78,2.05-1.15c.66-.37,1.18-.77,1.58-1.22-.77-.37-1.28-.71-1.53-1.03-.25-.31-.35-.6-.3-.86.05-.26.19-.5.42-.74s.45-.48.67-.74c.21-.24.42-.45.65-.65.23-.2.47-.32.73-.38s.54-.04.85.06.65.33,1.01.69c.77.75,1.49,1.41,2.13,1.97s1.27,1.09,1.89,1.59,1.23,1,1.85,1.5,1.3,1.06,2.05,1.67c.55.45,1.07.83,1.56,1.16.48.33.95.66,1.41.98.45.32.9.66,1.35,1.01s.91.8,1.39,1.33c.76.81,1.47,1.59,2.12,2.33l-.02-.02Zm-14.82-5.6c-.64.13-1.24.38-1.82.76-.58.38-1.14.85-1.67,1.4-.54.55-1.08,1.13-1.62,1.76-.45.51-.86,1.1-1.24,1.75s-.68,1.34-.9,2.07-.31,1.49-.28,2.27.25,1.53.64,2.25c.35.64.78,1.22,1.3,1.75s1.08.96,1.69,1.3,1.22.55,1.85.63c.63.08,1.22-.02,1.76-.3.43-.23.89-.6,1.4-1.09.51-.5,1-1.09,1.46-1.78.47-.69.9-1.42,1.28-2.22.39-.79.68-1.58.87-2.35.43-1.74.43-3.32.02-4.73s-1.31-2.52-2.72-3.33c-.72-.21-1.4-.26-2.03-.13h.01Z"/></g></g></g></svg>